<?xml version="1.0" encoding="UTF-8" standalone="no"?>
<!-- Created with Inkscape (http://www.inkscape.org/) -->

<svg
   width="200mm"
   height="200mm"
   viewBox="0 0 200 200"
   version="1.1"
   id="svg5"
   inkscape:version="1.1.2 (0a00cf5339, 2022-02-04)"
   sodipodi:docname="icon.svg"
   inkscape:export-filename="/home/etobella/chevron/odoo/custom/src/helpdesk/helpdesk_mgmt_project/static/description/icon.png"
   inkscape:export-xdpi="91.328003"
   inkscape:export-ydpi="91.328003"
   xmlns:inkscape="http://www.inkscape.org/namespaces/inkscape"
   xmlns:sodipodi="http://sodipodi.sourceforge.net/DTD/sodipodi-0.dtd"
   xmlns="http://www.w3.org/2000/svg"
   xmlns:svg="http://www.w3.org/2000/svg">
  <sodipodi:namedview
     id="namedview7"
     pagecolor="#ffffff"
     bordercolor="#666666"
     borderopacity="1.0"
     inkscape:pageshadow="2"
     inkscape:pageopacity="0.0"
     inkscape:pagecheckerboard="0"
     inkscape:document-units="mm"
     showgrid="false"
     inkscape:zoom="0.32026164"
     inkscape:cx="10.928565"
     inkscape:cy="572.96903"
     inkscape:window-width="1858"
     inkscape:window-height="1016"
     inkscape:window-x="0"
     inkscape:window-y="0"
     inkscape:window-maximized="1"
     inkscape:current-layer="layer1" />
  <defs
     id="defs2" />
  <g
     inkscape:label="Capa 1"
     inkscape:groupmode="layer"
     id="layer1">
    <path
       id="path1927"
       style="fill:#7d88a5;fill-opacity:1;stroke-width:0.0666221;paint-order:stroke fill markers"
       d="m 183.0986,134.37023 a 89.999999,89.999999 0 0 0 -1.9e-4,-68.88285 l -46.24415,19.154953 a 39.999999,39.999999 0 0 1 0.0502,30.593657 z"
       inkscape:export-filename="/home/etobella/chevron/odoo/custom/src/helpdesk/helpdesk_mgmt/static/description/path1927.png"
       inkscape:export-xdpi="91.328003"
       inkscape:export-ydpi="91.328003" />
    <path
       id="path1927-7"
       style="fill:#b8c8f3;fill-opacity:1;stroke-width:0.0666221;paint-order:stroke fill markers"
       d="M 183.0484,65.508091 A 89.999999,89.999999 0 0 0 134.34073,16.800704 l -19.15495,46.244143 a 39.999999,39.999999 0 0 1 21.66848,21.597486 z"
       inkscape:export-filename="/home/etobella/chevron/odoo/custom/src/helpdesk/helpdesk_mgmt/static/description/path1927.png"
       inkscape:export-xdpi="91.328003"
       inkscape:export-ydpi="91.328003" />
    <path
       id="path1927-9"
       style="fill:#7d88a5;fill-opacity:1;stroke-width:0.0666221;paint-order:stroke fill markers"
       d="m 134.32002,16.850708 a 89.999999,89.999999 0 0 0 -68.882839,1.94e-4 l 19.154954,46.24415 a 39.999999,39.999999 0 0 1 30.593645,-0.0502 z"
       inkscape:export-filename="/home/etobella/chevron/odoo/custom/src/helpdesk/helpdesk_mgmt/static/description/path1927.png"
       inkscape:export-xdpi="91.328003"
       inkscape:export-ydpi="91.328003" />
    <path
       id="path1927-7-3"
       style="fill:#b8c8f3;fill-opacity:1;stroke-width:0.0666221;paint-order:stroke fill markers"
       d="M 65.45789,16.900911 A 89.999999,89.999999 0 0 0 16.750503,65.60858 L 62.994646,84.763531 A 39.999999,39.999999 0 0 1 84.592135,63.095052 Z"
       inkscape:export-filename="/home/etobella/chevron/odoo/custom/src/helpdesk/helpdesk_mgmt/static/description/path1927.png"
       inkscape:export-xdpi="91.328003"
       inkscape:export-ydpi="91.328003" />
    <path
       id="path1927-6"
       style="fill:#b8c8f3;fill-opacity:1;stroke-width:0.0666221;paint-order:stroke fill markers"
       d="m 183.0986,134.37023 a 89.999999,89.999999 0 0 1 -48.70767,48.70738 l -19.15495,-46.24413 a 39.999999,39.999999 0 0 0 21.66848,-21.59749 z"
       inkscape:export-filename="/home/etobella/chevron/odoo/custom/src/helpdesk/helpdesk_mgmt/static/description/path1927.png"
       inkscape:export-xdpi="91.328003"
       inkscape:export-ydpi="91.328003" />
    <path
       id="path1927-7-0"
       style="fill:#7d88a5;fill-opacity:1;stroke-width:0.0666221;paint-order:stroke fill markers"
       d="m 134.37022,183.02761 a 89.999999,89.999999 0 0 1 -68.882846,-2e-4 l 19.154955,-46.24414 a 39.999999,39.999999 0 0 0 30.593651,0.0502 z"
       inkscape:export-filename="/home/etobella/chevron/odoo/custom/src/helpdesk/helpdesk_mgmt/static/description/path1927.png"
       inkscape:export-xdpi="91.328003"
       inkscape:export-ydpi="91.328003" />
    <path
       id="path1927-9-6"
       style="fill:#b8c8f3;fill-opacity:1;stroke-width:0.0666221;paint-order:stroke fill markers"
       d="M 65.508085,182.97741 A 89.999999,89.999999 0 0 1 16.8007,134.26976 L 63.044854,115.1148 a 39.999999,39.999999 0 0 0 21.597475,21.66847 z"
       inkscape:export-filename="/home/etobella/chevron/odoo/custom/src/helpdesk/helpdesk_mgmt/static/description/path1927.png"
       inkscape:export-xdpi="91.328003"
       inkscape:export-ydpi="91.328003" />
    <path
       id="path1927-7-3-2"
       style="fill:#7d88a5;fill-opacity:1;stroke-width:0.0666221;paint-order:stroke fill markers"
       d="m 16.850706,134.24904 a 89.999999,89.999999 0 0 1 2e-4,-68.882849 l 46.244143,19.154952 a 39.999999,39.999999 0 0 0 -0.0502,30.593657 z"
       inkscape:export-filename="/home/etobella/chevron/odoo/custom/src/helpdesk/helpdesk_mgmt/static/description/path1927.png"
       inkscape:export-xdpi="91.328003"
       inkscape:export-ydpi="91.328003" />
    <g
       id="g844"
       transform="matrix(1.8788787,0,0,1.8788787,101.33405,0.33942767)">
      <path
         d="M 30.842,34.612 22.737,44.999 5.452,31.37 A 3.862,3.862 0 0 1 4.836,25.953 l 5.748,-7.243 20.258,15.903 z"
         fill="#985184"
         id="path829" />
      <path
         d="M 22.623,44.909 12.168,36.574 20.296,26.332 30.843,34.612 22.738,45 Z"
         fill="#005e7a"
         id="path831" />
      <path
         d="M 22.593,44.886 22.737,45 45.184,16.233 A 3.862,3.862 0 0 0 44.548,10.84 L 37.223,5 20.296,26.332 l 10.547,8.28 -8.105,10.387 -0.144,-0.113 z"
         fill="#1ad3bb"
         id="path833" />
    </g>
  </g>
</svg>
